<svg width="512" height="512" xmlns="http://www.w3.org/2000/svg">

 <g>
  <title>background</title>
  <rect fill="none" id="canvas_background" height="514" width="514" y="-1" x="-1"/>
 </g>
 <g>
  <title>Layer 1</title>
  <path fill="#4d9de0" id="svg_1" d="m500,224l-30.364014,0c-13.911987,-93.675003 -87.960999,-167.723999 -181.635986,-181.636002l0,-30.363998c0,-6.627 -5.372986,-12 -12,-12l-40,0c-6.626999,0 -12,5.373 -12,12l0,30.363998c-93.675003,13.912003 -167.723999,87.960999 -181.636002,181.636002l-30.363998,0c-6.627,0 -12,5.373001 -12,12l0,40c0,6.627014 5.373,12 12,12l30.363998,0c13.912003,93.674988 87.960999,167.723999 181.636002,181.635986l0,30.364014c0,6.627014 5.373001,12 12,12l40,0c6.627014,0 12,-5.372986 12,-12l0,-30.364014c93.674988,-13.911987 167.723999,-87.960999 181.635986,-181.635986l30.364014,0c6.627014,0 12,-5.372986 12,-12l0,-40c0,-6.626999 -5.372986,-12 -12,-12zm-212,180.634003l0,-40.634003c0,-6.627014 -5.372986,-12 -12,-12l-40,0c-6.626999,0 -12,5.372986 -12,12l0,40.634003c-58.173996,-12.402008 -104.217003,-58.390991 -116.634003,-116.634003l40.634003,0c6.626999,0 12,-5.372986 12,-12l0,-40c0,-6.626999 -5.373001,-12 -12,-12l-40.634003,0c12.402,-58.173996 58.391006,-104.217003 116.634003,-116.634003l0,40.634003c0,6.626999 5.373001,12 12,12l40,0c6.627014,0 12,-5.373001 12,-12l0,-40.634003c58.174011,12.402 104.21701,58.391006 116.634003,116.634003l-40.634003,0c-6.627014,0 -12,5.373001 -12,12l0,40c0,6.627014 5.372986,12 12,12l40.634003,0c-12.402008,58.174011 -58.390991,104.21701 -116.634003,116.634003zm0,-148.634003c0,17.673004 -14.326996,32 -32,32s-32,-14.326996 -32,-32c0,-17.673004 14.326996,-32 32,-32s32,14.326996 32,32z"/>
 </g>
</svg>